<?xml version="1.0" encoding="UTF-8"?>
<svg width="16px" height="12px" viewBox="0 0 16 12" version="1.1" xmlns="http://www.w3.org/2000/svg" xmlns:xlink="http://www.w3.org/1999/xlink">
    <!-- Generator: sketchtool 53.2 (72643) - https://sketchapp.com -->
    <title>C070EDE8-7967-4B17-88E5-38259325B3CF</title>
    <desc>Created with sketchtool.</desc>
    <g id="Symbols" stroke="none" stroke-width="1" fill="none" fill-rule="evenodd">
        <g id="icons/subwindows/battery/active/charging-complete">
            <g id="Group" transform="translate(7.890896, 5.749498) rotate(-180.000000) translate(-7.890896, -5.749498) translate(-0.609104, 1.749498)">
                <g id="battery" transform="translate(8.400000, 4.000000) rotate(-90.000000) translate(-8.400000, -4.000000) translate(4.400000, -4.000000)" fill="#E4E4E4" fill-rule="nonzero">
                    <path d="M7.134,1.06666667 L5.5,1.06666667 L5.5,0 L2.5,0 L2.5,1.06666667 L0.866,1.06666667 C0.3885,1.06666667 -2.84217094e-14,1.48106667 -2.84217094e-14,1.9904 L-2.84217094e-14,15.0762667 C-2.84217094e-14,15.5856 0.3885,16 0.866,16 L7.13375,16 C7.6115,16 8,15.5856 8,15.0762667 L8,1.9904 C8,1.48106667 7.6115,1.06666667 7.134,1.06666667 Z" id="Combined-Shape"></path>
                </g>
                <path d="M9,0.500183105 L15.680319,0.500183105 C15.8253447,0.500183105 15.9430883,0.664183105 15.9430883,0.866183105 L15.9430883,2.50018311 L15.9430883,5.50018311 L15.9430883,7.13418311 C15.9430883,7.33618311 15.8253447,7.50018311 15.680319,7.50018311 L8.94308827,7.50018311 L2.26276923,7.5 C2.11774359,7.5 2,7.336 2,7.134 L2,5.5 L2,2.5 L2,0.866 C2,0.664 2.11774359,0.5 2.26276923,0.5 L9,0.5 Z" id="Combined-Shape" fill="#66BB6A"></path>
                <polygon id="Path" fill="#E4E4E4" fill-rule="nonzero" transform="translate(8.994449, 3.953614) rotate(70.000000) translate(-8.994449, -3.953614) " points="7.53844884 7.55111355 8.75344884 4.21211355 7.21944884 3.77411355 10.0954488 0.356113547 9.23544884 3.34211355 10.7694488 3.78011355"></polygon>
            </g>
        </g>
    </g>
</svg>
