<?xml version="1.0" encoding="UTF-8"?>
<svg width="16px" height="12px" viewBox="0 0 16 12" version="1.1" xmlns="http://www.w3.org/2000/svg" xmlns:xlink="http://www.w3.org/1999/xlink">
    <!-- Generator: sketchtool 53.2 (72643) - https://sketchapp.com -->
    <title>2EE64871-0D7A-481D-950F-62957FF35914</title>
    <desc>Created with sketchtool.</desc>
    <g id="Symbols" stroke="none" stroke-width="1" fill="none" fill-rule="evenodd">
        <g id="icons/subwindows/battery/active/charging">
            <g id="battery-(1)" transform="translate(7.986287, 5.995218) rotate(-270.000000) translate(-7.986287, -5.995218) translate(3.486287, -2.004782)">
                <path d="M7.40323077,1.06666667 C7.88073077,1.06666667 8.26923077,1.48106667 8.26923077,1.9904 L8.26923077,15.0762667 C8.26923077,15.5856 7.88073077,16 7.40323077,16 L1.13523077,16 C0.657730769,16 0.269230769,15.5856 0.269230769,15.0762667 L0.269230769,1.9904 C0.269230769,1.48106667 0.657730769,1.06666667 1.13523077,1.06666667 L2.76923077,1.06666667 L2.76923077,0 L5.76923077,0 L5.76923077,1.06666667 L7.40323077,1.06666667 Z M1.26923077,1.6 C0.993088394,1.6 0.769230769,1.82385763 0.769230769,2.1 L0.769230769,12.5669794 L7.76923077,12.5669794 L7.76923077,2.1 C7.76923077,1.82385763 7.54537314,1.6 7.26923077,1.6 L5.76923077,1.6 L2.76923077,1.6 L1.26923077,1.6 Z" id="Shape" fill="#FFFFFF" fill-rule="nonzero"></path>
                <path d="M1.26904766,12.5669794 L2.76923077,12.5669794 L5.76923077,12.5669794 L7.26923077,12.5669794 C7.54537314,12.5669794 7.76923077,12.790837 7.76923077,13.0669794 L7.76923077,15.5430883 L0.769230769,15.5430883 L0.769047665,13.0669794 C0.769030675,12.790837 0.992874527,12.5669656 1.2690169,12.5669486 C1.26902716,12.5669486 1.26903741,12.5669486 1.26904766,12.5669486 Z" id="Path" fill="#66BB6A" transform="translate(4.269139, 14.055034) rotate(-180.000000) translate(-4.269139, -14.055034) "></path>
            </g>
            <polygon id="Path" fill="#FFFFFF" fill-rule="nonzero" transform="translate(7.987630, 5.898372) rotate(70.000000) translate(-7.987630, -5.898372) " points="6.53162996 9.49587187 7.74662996 6.15687187 6.21262996 5.71887187 9.08862996 2.30087187 8.22862996 5.28687187 9.76262996 5.72487187"></polygon>
        </g>
    </g>
</svg>