<?xml version="1.0" encoding="UTF-8"?>
<svg width="16px" height="12px" viewBox="0 0 16 12" version="1.1" xmlns="http://www.w3.org/2000/svg" xmlns:xlink="http://www.w3.org/1999/xlink">
    <!-- Generator: sketchtool 53.2 (72643) - https://sketchapp.com -->
    <title>CFC9899F-8DFF-49DF-A2F9-D7B641D29B00</title>
    <desc>Created with sketchtool.</desc>
    <g id="Symbols" stroke="none" stroke-width="1" fill="none" fill-rule="evenodd">
        <g id="icons/subwindows/battery/active/75%">
            <g id="Group" transform="translate(7.996530, 6.000000) rotate(-180.000000) translate(-7.996530, -6.000000) translate(-0.503470, 1.000000)">
                <g id="battery-(1)" transform="translate(8.500000, 5.000000) rotate(-90.000000) translate(-8.500000, -5.000000) translate(4.000000, -3.000000)" fill="#FFFFFF" fill-rule="nonzero">
                    <path d="M7.40323077,1.06666667 L5.76923077,1.06666667 L5.76923077,0 L2.76923077,0 L2.76923077,1.06666667 L1.13523077,1.06666667 C0.657730769,1.06666667 0.269230769,1.48106667 0.269230769,1.9904 L0.269230769,15.0762667 C0.269230769,15.5856 0.657730769,16 1.13523077,16 L7.40323077,16 C7.88073077,16 8.26923077,15.5856 8.26923077,15.0762667 L8.26923077,1.9904 C8.26923077,1.48106667 7.88073077,1.06666667 7.40323077,1.06666667 Z M1.26923077,1.6 L2.76923077,1.6 L5.76923077,1.6 L7.26923077,1.6 C7.54537314,1.6 7.76923077,1.82385763 7.76923077,2.1 L7.76923077,4.6 L0.769230769,4.6 L0.769230769,2.1 C0.769230769,1.82385763 0.993088394,1.6 1.26923077,1.6 Z" id="Shape"></path>
                </g>
                <path d="M9.04308827,8.73076923 L5.02094463,8.73076923 L5.1,1.73095234 L12.1996923,1.73076923 C12.2028977,1.73076923 12.2060915,1.73083057 12.2092728,1.73095234 L15.780319,1.73095234 C15.9253447,1.73095234 16.0430883,1.89495234 16.0430883,2.09695234 L16.0430883,3.73095234 L16.0430883,6.73095234 L16.0430883,8.36495234 C16.0430883,8.56695234 15.9253447,8.73095234 15.780319,8.73095234 L9.04308827,8.73095234 Z" id="Combined-Shape" fill="#66BB6A"></path>
            </g>
        </g>
    </g>
</svg>