<?xml version="1.0" encoding="UTF-8"?>
<svg width="16px" height="12px" viewBox="0 0 16 12" version="1.1" xmlns="http://www.w3.org/2000/svg" xmlns:xlink="http://www.w3.org/1999/xlink">
    <!-- Generator: sketchtool 53.2 (72643) - https://sketchapp.com -->
    <title>E40BFF18-5FC1-4439-A143-EBD27C02C1B9</title>
    <desc>Created with sketchtool.</desc>
    <g id="Symbols" stroke="none" stroke-width="1" fill="none" fill-rule="evenodd">
        <g id="icons/subwindows/battery/active/100%">
            <g id="Group" transform="translate(7.910079, 5.770369) rotate(-180.000000) translate(-7.910079, -5.770369) translate(-0.589921, 1.770369)">
                <g id="battery" transform="translate(8.400000, 4.000000) rotate(-90.000000) translate(-8.400000, -4.000000) translate(4.400000, -4.000000)" fill="#FFFFFF" fill-rule="nonzero">
                    <path d="M7.134,1.06666667 L5.5,1.06666667 L5.5,0 L2.5,0 L2.5,1.06666667 L0.866,1.06666667 C0.3885,1.06666667 0,1.48106667 0,1.9904 L0,15.0762667 C0,15.5856 0.3885,16 0.866,16 L7.13375,16 C7.6115,16 8,15.5856 8,15.0762667 L8,1.9904 C8,1.48106667 7.6115,1.06666667 7.134,1.06666667 Z" id="Path"></path>
                </g>
                <path d="M9,0.500183105 L15.680319,0.500183105 C15.8253447,0.500183105 15.9430883,0.664183105 15.9430883,0.866183105 L15.9430883,2.50018311 L15.9430883,5.50018311 L15.9430883,7.13418311 C15.9430883,7.33618311 15.8253447,7.50018311 15.680319,7.50018311 L8.94308827,7.50018311 L2.26276923,7.5 C2.11774359,7.5 2,7.336 2,7.134 L2,5.5 L2,2.5 L2,0.866 C2,0.664 2.11774359,0.5 2.26276923,0.5 L9,0.5 Z" id="Combined-Shape" fill="#66BB6A"></path>
            </g>
        </g>
    </g>
</svg>