<?xml version="1.0" encoding="UTF-8"?>
<svg width="16px" height="12px" viewBox="0 0 16 12" version="1.1" xmlns="http://www.w3.org/2000/svg" xmlns:xlink="http://www.w3.org/1999/xlink">
    <!-- Generator: sketchtool 53.2 (72643) - https://sketchapp.com -->
    <title>D59252EA-8924-43F1-8619-26259D594CA1</title>
    <desc>Created with sketchtool.</desc>
    <g id="Symbols" stroke="none" stroke-width="1" fill="none" fill-rule="evenodd">
        <g id="icons/subwindows/battery/active/50%">
            <g id="Group" transform="translate(7.999719, 6.002272) rotate(-180.000000) translate(-7.999719, -6.002272) translate(-0.500281, 1.002272)">
                <g id="battery-(1)" transform="translate(8.500000, 5.000000) rotate(-90.000000) translate(-8.500000, -5.000000) translate(4.000000, -3.000000)" fill="#E4E4E4" fill-rule="nonzero">
                    <path d="M7.40323077,1.06666667 C7.88073077,1.06666667 8.26923077,1.48106667 8.26923077,1.9904 L8.26923077,15.0762667 C8.26923077,15.5856 7.88073077,16 7.40323077,16 L1.13523077,16 C0.657730769,16 0.269230769,15.5856 0.269230769,15.0762667 L0.269230769,1.9904 C0.269230769,1.48106667 0.657730769,1.06666667 1.13523077,1.06666667 L2.76923077,1.06666667 L2.76923077,0 L5.76923077,0 L5.76923077,1.06666667 L7.40323077,1.06666667 Z M1.26923076,1.6 C0.993088388,1.6 0.769230763,1.82385762 0.769230763,2.1 L0.769230764,8.56658188 L7.76923077,8.56658188 L7.76923078,2.1 C7.76923077,1.82385762 7.54537315,1.6 7.26923077,1.6 L5.76923077,1.6 L2.76923077,1.6 L1.26923076,1.6 Z" id="Shape"></path>
                </g>
                <path d="M9.40908827,1.73095234 L11.0430883,1.73095234 L14.0430883,1.73095234 L15.6770883,1.73095234 C15.8790883,1.73095234 16.0430883,1.84869593 16.0430883,1.99372157 L16.0430883,8.73095234 L9.04308827,8.73095234 L9.04308827,1.99372157 C9.04308827,1.84869593 9.20708827,1.73095234 9.40908827,1.73095234 Z" id="Path" fill="#66BB6A" transform="translate(12.543088, 5.230952) rotate(-270.000000) translate(-12.543088, -5.230952) "></path>
            </g>
        </g>
    </g>
</svg>
