<?xml version="1.0" encoding="UTF-8"?>
<svg width="980.02" height="965.4" enable-background="new 0 0 1000 1000" version="1.1" viewBox="0 0 980.02 965.4" xml:space="preserve" xmlns="http://www.w3.org/2000/svg">
<g transform="translate(-9.9916,-17.3)" fill="#e4e4e4" stroke="#e4e4e4"><path d="m289.3 501.2c0 118.9 96.4 215.2 215.2 215.2 118.9 0 215.2-96.4 215.2-215.2 0-118.9-96.4-215.2-215.2-215.2s-215.2 96.4-215.2 215.2z"/><path d="m498.8 177.8c-17.4 0-31.6-14.2-31.6-31.6v-97.3c0-17.4 14.2-31.6 31.6-31.6s31.6 14.2 31.6 31.6v97.3c0 17.4-14.2 31.6-31.6 31.6z"/><path d="m504.5 982.7c-17.4 0-31.6-14.2-31.6-31.6v-97.3c0-17.4 14.2-31.6 31.6-31.6s31.6 14.2 31.6 31.6v97.3c.1 17.4-14.2 31.6-31.6 31.6z"/><path d="m156.3 843.7c-12-12.5-11.6-32.7.9-44.7l70.2-67.3c12.5-12 32.7-11.6 44.7.9s11.6 32.7-.9 44.7l-70.2 67.4c-12.5 12-32.6 11.6-44.7-1z"/><path d="m728.5 267.4c-12-12.5-11.6-32.7.9-44.7l70.2-67.3c12.5-12 32.7-11.6 44.7.9s11.6 32.7-.9 44.7l-70.2 67.3c-12.5 12-32.6 11.6-44.7-.9z"/><path d="m829.5 497.1c.4-17.4 14.9-31.3 32.3-30.9l97.3 2c17.4.4 31.3 14.9 30.9 32.3s-14.9 31.3-32.3 30.9l-97.3-2c-17.3-.4-31.2-14.9-30.9-32.3z"/><path d="m10 497.1c.4-17.4 14.9-31.3 32.3-30.9l97.3 2c17.4.4 31.3 14.9 30.9 32.3s-14.9 31.3-32.3 30.9l-97.3-2c-17.3-.4-31.3-14.9-30.9-32.3z"/><path d="m152.2 159.1c11.4-13.1 31.5-14.5 44.6-3l73.3 63.9c13.1 11.4 14.5 31.5 3 44.6-11.4 13.1-31.5 14.5-44.6 3l-73.3-63.9c-13-11.5-14.4-31.5-3-44.6z"/><path d="m726 735.4c11.4-13.1 31.5-14.5 44.6-3l73.3 63.9c13.1 11.4 14.5 31.5 3 44.6-11.4 13.1-31.5 14.5-44.6 3l-73.3-63.9c-13.1-11.4-14.5-31.5-3-44.6z"/></g>
</svg>
