<svg width="14.019" height="11.749" version="1.1" viewBox="0 0 14.019 11.749" xmlns="http://www.w3.org/2000/svg">
 <path d="m4.2987 0.21934a0.75 0.75 0 0 1 0 1.06l-2 2a0.75 0.75 0 0 1-1.06 0l-1-1a0.75 0.75 0 0 1 1.06-1.06l0.47 0.47 1.47-1.47a0.75 0.75 0 0 1 1.06 0m1.22 1.53c0 0.414 0.336 0.75 0.75 0.75h7a0.75 0.75 0 0 0 0-1.5h-7a0.75 0.75 0 0 0-0.75 0.75m0.75 3.5a0.75 0.75 0 0 0 0 1.5h7a0.75 0.75 0 0 0 0-1.5zm-1.97 0.03a0.75 0.75 0 0 0-1.06-1.06l-1.47 1.47-0.47-0.47a0.75 0.75 0 0 0-1.06 1.06l1 1a0.75 0.75 0 0 0 1.06 0zm0 3.19a0.75 0.75 0 0 1 0 1.06l-2 2a0.75 0.75 0 0 1-1.06 0l-1-1a0.75 0.75 0 1 1 1.06-1.06l0.47 0.47 1.47-1.47a0.75 0.75 0 0 1 1.06 0m1.97 1.03a0.75 0.75 0 0 0 0 1.5h7a0.75 0.75 0 0 0 0-1.5z" clip-rule="evenodd" fill="#e4e4e4" fill-rule="evenodd"/>
</svg>
