<svg width="20" height="20" version="1.1" viewBox="0 0 20 20" xmlns="http://www.w3.org/2000/svg">
 <path d="m6 16q-0.825 0-1.412-0.587t-0.588-1.413v-12q0-0.825 0.588-1.412t1.412-0.588h12q0.825 0 1.413 0.588t0.587 1.412v12q0 0.825-0.587 1.413t-1.413 0.587zm-4 4q-0.825 0-1.412-0.587t-0.588-1.413v-13q0-0.425 0.288-0.712t0.712-0.288 0.713 0.288 0.287 0.712v13h13q0.425 0 0.713 0.288t0.287 0.712-0.288 0.713-0.712 0.287zm8.6-9.2 1.4-1.4 1.4 1.4q0.275 0.275 0.7 0.275t0.7-0.275 0.275-0.7-0.275-0.7l-1.4-1.4 1.4-1.4q0.275-0.275 0.275-0.7t-0.275-0.7-0.7-0.275-0.7 0.275l-1.4 1.4-1.4-1.4q-0.275-0.275-0.7-0.275t-0.7 0.275-0.275 0.7 0.275 0.7l1.4 1.4-1.4 1.4q-0.275 0.275-0.275 0.7t0.275 0.7 0.7 0.275 0.7-0.275" fill="#e4e4e4"/>
</svg>
