<?xml version="1.0" encoding="UTF-8"?>
<svg width="20px" height="20px" viewBox="0 0 20 20" version="1.1" xmlns="http://www.w3.org/2000/svg" xmlns:xlink="http://www.w3.org/1999/xlink">
    <title>icons/close</title>
    <g id="UI-(8-screens)" stroke="none" stroke-width="1" fill="none" fill-rule="evenodd">
        <g id="Icons_updates_01.03.21" transform="translate(-380.000000, -525.000000)" fill="#E4E4E4" stroke="#E4E4E4" stroke-width="0.4">
            <g id="icons/close" transform="translate(381.000000, 526.000000)">
                <path d="M8.46098595,-2.68890802 L9.53901405,-2.68890802 C9.81515642,-2.68890802 10.039014,-2.46505039 10.039014,-2.18890802 L10.039014,20.188908 C10.039014,20.4650504 9.81515642,20.688908 9.53901405,20.688908 L8.46098595,20.688908 C8.18484358,20.688908 7.96098595,20.4650504 7.96098595,20.188908 L7.96098595,-2.18890802 C7.96098595,-2.46505039 8.18484358,-2.68890802 8.46098595,-2.68890802 Z" id="Rectangle" transform="translate(9.000000, 9.000000) rotate(45.000000) translate(-9.000000, -9.000000) "></path>
                <path d="M8.46098595,-2.68890802 L9.53901405,-2.68890802 C9.81515642,-2.68890802 10.039014,-2.46505039 10.039014,-2.18890802 L10.039014,20.188908 C10.039014,20.4650504 9.81515642,20.688908 9.53901405,20.688908 L8.46098595,20.688908 C8.18484358,20.688908 7.96098595,20.4650504 7.96098595,20.188908 L7.96098595,-2.18890802 C7.96098595,-2.46505039 8.18484358,-2.68890802 8.46098595,-2.68890802 Z" id="Rectangle" transform="translate(9.000000, 9.000000) scale(-1, 1) rotate(45.000000) translate(-9.000000, -9.000000) "></path>
            </g>
        </g>
    </g>
</svg>