<?xml version="1.0" encoding="UTF-8"?>
<svg width="17px" height="19px" viewBox="0 0 17 19" version="1.1" xmlns="http://www.w3.org/2000/svg" xmlns:xlink="http://www.w3.org/1999/xlink">
    <title>icons/default</title>
    <g id="UI-(8-screens)" stroke="none" stroke-width="1" fill="none" fill-rule="evenodd">
        <g id="Icons_updates_01.03.21" transform="translate(-382.000000, -381.000000)" fill="#E4E4E4" fill-rule="nonzero">
            <path d="M385.425053,387.368421 L388.220377,390.18005 C388.482552,390.443754 388.482823,390.869599 388.220985,391.133637 L387.90907,391.448174 C387.645913,391.713542 387.217459,391.715335 386.952091,391.452178 C386.950874,391.450971 386.949661,391.449759 386.948453,391.448543 L382.473609,386.943021 C382.21152,386.679136 382.21152,386.253195 382.473609,385.989309 L386.948453,381.483788 C387.211814,381.218622 387.640269,381.217159 387.905434,381.480519 C387.906651,381.481727 387.907863,381.48294 387.90907,381.484157 L388.220985,381.798694 C388.482823,382.062732 388.482552,382.488577 388.220377,382.752281 L385.425053,385.56391 L385.425053,385.56391 L391.842105,385.56391 C395.795301,385.56391 399,388.795539 399,392.781955 C399,396.768371 395.795301,400 391.842105,400 L384.466165,400 C384.092439,400 383.789474,399.697035 383.789474,399.323308 L383.789474,398.87218 C383.789474,398.498454 384.092439,398.195489 384.466165,398.195489 L391.842105,398.195489 L391.842105,398.195489 C394.807002,398.195489 397.210526,395.771767 397.210526,392.781955 C397.210526,389.792143 394.807002,387.368421 391.842105,387.368421 L385.425053,387.368421 Z"
                  id="icons/default"></path>
        </g>
    </g>
</svg>
