<?xml version="1.0" encoding="UTF-8"?>
<svg width="201.6pt" height="224pt" version="1.1" viewBox="0 0 201.6 224" xmlns="http://www.w3.org/2000/svg">
 <path d="m196 28.004c-3.3594 0-5.6016 2.2383-5.6016 5.6016v179.2h-162.4c-9.5195 0-16.801-7.2812-16.801-16.801s7.2812-16.801 16.801-16.801h151.2c3.3594 0 5.6016-2.2383 5.6016-5.6016v-168c0-3.3594-2.2383-5.6016-5.6016-5.6016h-151.2c-15.68 0-28 12.32-28 28v168c0 15.68 12.32 28 28 28h168c3.3594 0 5.6016-2.2383 5.6016-5.6016v-184.8c0-3.3633-2.2422-5.6016-5.6016-5.6016zm-22.398 140h-140v-156.8h140zm11.199 28c0 3.3594-2.2383 5.6016-5.6016 5.6016h-151.2c-3.3594 0-5.6016-2.2383-5.6016-5.6016 0-3.3594 2.2383-5.6016 5.6016-5.6016h151.2c3.3633 0 5.6016 2.2422 5.6016 5.6016zm-128.8-151.2c0-3.3594 2.2383-5.6016 5.6016-5.6016h84c3.3594 0 5.6016 2.2383 5.6016 5.6016 0 3.3594-2.2383 5.6016-5.6016 5.6016l-84-.004c-3.3594 0-5.6016-2.2383-5.6016-5.5977zm89.602 22.398c0 3.3594-2.2383 5.6016-5.6016 5.6016h-72.801c-3.3594 0-5.6016-2.2383-5.6016-5.6016 0-3.3594 2.2383-5.6016 5.6016-5.6016h72.801c3.3594.004 5.6016 2.2422 5.6016 5.6016z" fill="#e4e4e4"/>
</svg>
