<svg width="17.633" height="17.502" version="1.1" viewBox="0 0 17.633 17.502" xmlns="http://www.w3.org/2000/svg">
    <g transform="translate(-2.761 .10749)" fill="#e4e4e4">
        <path d="m10.864 5.375v-1c0-2.247 1.87-4.073 4.169-4.073 2.298 0 4.168 1.827 4.168 4.072v3.458h.857c.16453-.00112.29926.13049.302.295v4.158c-.0016.16514-.13686.29766-.302.296h-.284v1.553c0 .044-.01.086-.027.124l-.577-.578-1.1-1.1-1.419-1.418v-3.035c0-.163.136-.295.303-.295h.856v-3.458c0-1.496-1.246-2.714-2.777-2.714-1.532 0-2.778 1.218-2.778 2.714v2.392l-1.39-1.39zm0 4.978 1.391 1.391v1.205c0 2.246-1.87 4.073-4.168 4.073s-4.167-1.827-4.167-4.073v-3.551h-.857c-.16514.0016652-.30035-.13086-.302-.296v-4.158c0-.163.135-.296.302-.296h.284v-1.553c-.0002531-.069687.024596-.13713.07-.19l3.053 3.053v3.144c-.001646.16553-.13747.29822-.303.296h-.857v3.551c0 1.496 1.246 2.714 2.777 2.714 1.532 0 2.777-1.218 2.777-2.714zm-7.714-10.203c.3436-.34332.9004-.34332 1.244 0l15.726 15.726c.83.83-.415 2.075-1.245 1.245l-15.725-15.728c-.34332-.3436-.34332-.9004 0-1.244z"/>
    </g>
</svg>
