<?xml version="1.0" encoding="UTF-8"?>
<svg width="17px" height="19px" viewBox="0 0 17 19" version="1.1" xmlns="http://www.w3.org/2000/svg" xmlns:xlink="http://www.w3.org/1999/xlink">
    <title>ic_download_upd</title>
    <g id="UI-(8-screens)" stroke="none" stroke-width="1" fill="none" fill-rule="evenodd">
        <g id="Icons_updates_01.03.21" transform="translate(-273.000000, -641.000000)" fill="#E4E4E4">
            <g id="ic_download_upd" transform="translate(273.000000, 641.000000)">
                <g id="icon_new" transform="translate(3.000000, -0.000000)" fill-rule="nonzero">
                    <path d="M3.9976832,6.49037139 L6.91159521,9.64071175 C7.15126477,9.89982757 7.15151909,10.2996371 6.91217937,10.5590576 L6.54104521,10.9613302 C6.28762563,11.2360119 5.85951497,11.2532482 5.58483328,10.9998287 C5.57161618,10.9876347 5.55889042,10.9749186 5.54668629,10.9617109 L0.924340861,5.9592374 C0.68475686,5.69995072 0.68475686,5.30004928 0.924340861,5.0407626 L5.54668629,0.0382891265 C5.8003161,-0.236198454 6.22843984,-0.253107015 6.50292742,0.000522798146 C6.51613518,0.0127269243 6.5288512,0.02545269 6.54104521,0.0386697876 L6.91217937,0.440942406 C7.15151909,0.700362921 7.15126477,1.10017243 6.91159521,1.35928825 L3.9976832,4.50962861 L3.9976832,4.50962861 L10.5096286,4.50962861 C11.0565956,4.50962861 11.5,4.95303299 11.5,5.5 C11.5,6.04696701 11.0565956,6.49037139 10.5096286,6.49037139 L3.9976832,6.49037139 L3.9976832,6.49037139 Z" id="icons/default"
                          transform="translate(6.000000, 5.500000) scale(1, -1) rotate(90.000000) translate(-6.000000, -5.500000) "></path>
                </g>
                <path d="M14.9896082,16.9487222 L14.9896082,14 C14.9896082,13.4477153 15.4373234,13 15.9896082,13 L16,13 C16.5522847,13 17,13.4477153 17,14 L17,18 C17,18.5522847 16.5522847,19 16,19 L1,19 C0.44771525,19 -3.53427376e-13,18.5522847 -3.53495011e-13,18 L-3.53495011e-13,18 L-3.53495011e-13,14 C-3.53562646e-13,13.4477153 0.44771525,13 1,13 L1,13 L1.01039108,13 C1.56267583,13 2.01039108,13.4477153 2.01039108,14 L2.01039108,14 L2.01039108,16.9487222 L14.9896082,16.9487222 Z" id="Combined-Shape"></path>
            </g>
        </g>
    </g>
</svg>