<?xml version="1.0" encoding="UTF-8" standalone="no"?>
<svg width="24.492016" height="19" viewBox="0 0 24.492016 19" xmlns="http://www.w3.org/2000/svg">
    <g id="UI-(8-screens)" stroke="none" stroke-width="1" fill="none" fill-rule="evenodd">
        <g id="Icons_updates_01.03.21" transform="translate(-273,-641)" fill="#e4e4e4">
            <g id="ic_download_upd" transform="translate(273,641)">
                <g id="icon_new" transform="translate(3)" fill-rule="nonzero">
                    <path d="m 3.9976832,6.4903714 2.913912,3.1503404 c 0.2396696,0.2591158 0.2399239,0.6589252 5.842e-4,0.9183462 L 6.5410452,10.96133 C 6.2876256,11.236012 5.859515,11.253248 5.5848333,10.99983 5.5716163,10.98764 5.5588903,10.97492 5.5466863,10.96171 L 0.92434086,5.9592374 c -0.239584,-0.2592867 -0.239584,-0.6591881 0,-0.9184748 L 5.5466863,0.03828913 C 5.8003161,-0.23619845 6.2284398,-0.25310702 6.5029274,5.2279815e-4 6.5161352,0.01272692 6.5288512,0.02545269 6.5410452,0.03866979 L 6.9121794,0.44094241 C 7.1515191,0.70036292 7.1512648,1.1001724 6.9115952,1.3592883 l -2.913912,3.1503403 v 0 H 10.509629 C 11.056596,4.5096286 11.5,4.953033 11.5,5.5 c 0,0.546967 -0.443404,0.9903714 -0.990371,0.9903714 z" id="icons/default" transform="matrix(0,-1,-1,0,11.5,11.5)"/>
                </g>
                <path d="M 14.989608,16.948722 V 14 c 0,-0.552285 0.447715,-1 1,-1 H 16 c 0.552285,0 1,0.447715 1,1 v 4 c 0,0.552285 -0.447715,1 -1,1 H 1 C 0.44771525,19 0,18.552285 0,18 v 0 -4 c 0,-0.552285 0.44771525,-1 1,-1 v 0 h 0.010391 c 0.5522847,0 1,0.447715 1,1 v 0 2.948722 z" id="Combined-Shape"/>
            </g>
        </g>
    </g>
    <g id="Style-Guide" stroke="none" stroke-width="1" fill="none" fill-rule="evenodd" transform="matrix(1.306464,0,0,1.3363285,7.507984,4.5343349e-8)">
        <g id="style-guide" transform="translate(-609,-845)" fill="#f7b500">
            <g id="icons/subwindows/warning/active" transform="translate(609,845)">
                <g id="warning-(1)">
                    <path d="M 12.884882,9.7765742 7.237229,0.40717141 c -0.3273616,-0.54289521 -1.1470964,-0.54289521 -1.474458,0 L 0.11511791,9.7765742 C -0.21224369,10.319469 0.19762368,11 0.8523469,11 H 12.147653 c 0.654723,0 1.064591,-0.680531 0.737229,-1.2234258 z M 6.5079844,3.2924173 c 0.3619608,0 0.6547232,0.2880148 0.6440773,0.6346521 l -0.106459,3.5581302 c -0.00798,0.2803684 -0.2475173,0.5021143 -0.5402798,0.5021143 -0.2927624,0 -0.5322952,-0.2242947 -0.5402797,-0.5021143 L 5.8612456,3.9270694 C 5.8532612,3.5804321 6.1433621,3.2924173 6.5079844,3.2924173 Z M 6.5,9.7281469 c -0.3699452,0 -0.6706921,-0.2880148 -0.6706921,-0.6422986 0,-0.3542837 0.3007469,-0.6422985 0.6706921,-0.6422985 0.3699452,0 0.6706921,0.2880148 0.6706921,0.6422985 0,0.3542838 -0.3007469,0.6422986 -0.6706921,0.6422986 z" id="Shape" fill-rule="nonzero"/>
                </g>
            </g>
        </g>
    </g>
</svg>
