<svg width="15.89" height="15.889" version="1.1" viewBox="0 0 15.89 15.889" xmlns="http://www.w3.org/2000/svg">
 <path d="m13.559 2.332c-3.105-3.105-8.136-3.11-11.235-.011-3.101 3.102-3.098 8.131.009 11.236 3.105 3.105 8.137 3.109 11.235.01 3.1-3.099 3.097-8.13-.009-11.235zm-4.003 8.954-1.688-1.688-1.688 1.688c-.689.689-1.207 1.289-2.029.468-.82-.821-.223-1.339.469-2.029l1.688-1.687-1.688-1.688c-.69-.689-1.289-1.207-.469-2.029.822-.82 1.34-.221 2.029.469l1.688 1.686 1.688-1.686c.69-.689 1.205-1.29 2.027-.469.822.822.223 1.34-.467 2.029l-1.688 1.687 1.688 1.687c.689.691 1.289 1.209.467 2.03-.82.821-1.337.221-2.027-.468z" fill="#ef5350" fill-rule="evenodd"/>
</svg>
