<svg width="21.154" height="14.577" version="1.1" viewBox="0 0 21.154 14.577" xmlns="http://www.w3.org/2000/svg">
 <path d="m10.577 14.577-10.577-10.583q2.19-1.96 4.917-2.977t5.66-1.017 5.67 1.017 4.907 2.977l-1.74 1.785q-0.654-0.775-1.611-1.277t-2.226-0.502q-2.077 0-3.538 1.462t-1.462 3.538q0 1.244 0.505 2.216 0.504 0.972 1.249 1.582zm9.389-0.558-2.614-2.607q-0.354 0.275-0.815 0.431-0.462 0.157-0.96 0.157-1.258 0-2.129-0.871t-0.871-2.129 0.871-2.129 2.129-0.871 2.129 0.871 0.871 2.129q0 0.46-0.137 0.902-0.138 0.442-0.374 0.796l2.607 2.613zm-2.973-3.603q0.584-0.586 0.584-1.416t-0.584-1.415-1.416-0.585-1.415 0.585-0.585 1.415 0.585 1.416 1.415 0.584 1.416-0.584" fill="#e4e4e4"/>
</svg>