<svg xmlns="http://www.w3.org/2000/svg" width="24" height="18" viewBox="0 0 24 18">
    <g fill="#E4E4E4" fill-rule="evenodd" transform="translate(3)">
        <path d="M8.668 17.992V18h-5.75l-.008-.008h-.907a2 2 0 0 1-2-2v-.88L0 15.11V9.376h.003V2a2 2 0 0 1 2-2H16a2 2 0 0 1 2 2v13.992a2 2 0 0 1-2 2H8.668zm0 0v-1.433h7.854V1.415H1.447v7.96H.003v5.737l2.907 2.88h5.758z"/>
        <rect width="7.2" height="7.2" y="10.8" rx="1"/>
        <path fill-rule="nonzero" d="M9.13 10.065l-.01.008 4.087-4.089.007 2.578c0 .126.052.246.141.336.09.09.21.14.336.14h.4a.468.468 0 0 0 .473-.471l-.007-4.413a.47.47 0 0 0-.14-.335.47.47 0 0 0-.336-.14L9.668 3.67a.468.468 0 0 0-.334.138.468.468 0 0 0-.138.334v.4a.47.47 0 0 0 .47.47h2.599L8.167 9.11a.49.49 0 0 0 .005.682l.284.284a.48.48 0 0 0 .675-.012z"/>
    </g>
</svg>
