<svg xmlns="http://www.w3.org/2000/svg" width="18" height="18" viewBox="0 0 18 18">
    <g fill="none" fill-rule="evenodd">
        <path fill="#E4E4E4" d="M8.603 17.992a1 1 0 0 0 .037-.272v-7.36a1 1 0 0 0-1-1H.28a1 1 0 0 0-.277.039V2a2 2 0 0 1 2-2H16a2 2 0 0 1 2 2v13.992a2 2 0 0 1-2 2H8.603zM15.19 1.848l.011-.007-4.088 4.088-.007-2.578a.475.475 0 0 0-.14-.335.474.474 0 0 0-.336-.14l-.4-.001a.468.468 0 0 0-.473.471l.007 4.414c0 .126.05.245.14.334.09.09.209.14.335.14l4.414.008a.468.468 0 0 0 .333-.138.468.468 0 0 0 .139-.334l-.001-.4a.47.47 0 0 0-.47-.47h-2.598l4.097-4.097a.49.49 0 0 0-.005-.683l-.284-.284a.48.48 0 0 0-.674.012z"/>
        <rect width="5.7" height="5.7" x=".75" y="11.55" stroke="#E4E4E4" stroke-width="1.5" rx="1"/>
    </g>
</svg>
