<?xml version="1.0" encoding="UTF-8"?>
<svg width="18px" height="18px" viewBox="0 0 18 18" version="1.1" xmlns="http://www.w3.org/2000/svg" xmlns:xlink="http://www.w3.org/1999/xlink">
    <title>icons/info</title>
    <g id="UI-(8-screens)" stroke="none" stroke-width="1" fill="none" fill-rule="evenodd">
        <g id="Icons_updates_01.03.21" transform="translate(-382.000000, -237.000000)" fill="#E4E4E4">
            <path d="M397.363961,239.636039 C400.87868,243.150758 400.87868,248.849242 397.363961,252.363961 C393.849242,255.87868 388.150758,255.87868 384.636039,252.363961 C381.12132,248.849242 381.12132,243.150758 384.636039,239.636039 C388.150758,236.12132 393.849242,236.12132 397.363961,239.636039 Z M392.25,244 L389.75,244 L389.75,252.333333 L392.25,252.333333 L392.25,244 Z M391,240 C390.171573,240 389.5,240.671573 389.5,241.5 C389.5,242.328427 390.171573,243 391,243 C391.828427,243 392.5,242.328427 392.5,241.5 C392.5,240.671573 391.828427,240 391,240 Z" id="icons/info"></path>
        </g>
    </g>
</svg>