<?xml version="1.0" encoding="UTF-8"?>
<svg width="16.731" height="12.682" version="1.1" viewBox="0 0 16.731 12.682" xmlns="http://www.w3.org/2000/svg">
 <g fill="#e4e4e4">
  <g aria-label="{">
   <path d="m6.1198 12.682h-.97656q-1.1654 0-1.8945-.65104-.72265-.64453-.72265-1.8685v-.97005q0-1.1003-.54036-1.7187-.54036-.625-1.6536-.625h-.33203v-1.0156h.33203q1.1133 0 1.6536-.61849.54036-.625.54036-1.7253v-.97005q0-1.224.72265-1.8685.72916-.65104 1.8945-.65104h.97656v.89844h-.74219q-.88541 0-1.2891.41016-.39713.41016-.39713 1.3216v1.1393q0 .90495-.5013 1.5234-.5013.61198-1.3932.97005v.15625q.89192.35807 1.3932.97656.5013.61198.5013 1.5169v1.1393q0 .91146.39713 1.3216.40364.41016 1.2891.41016h.74219z"/>
  </g>
  <g aria-label=":">
   <path d="m9.1434 4.5605h-1.556v-1.8555h1.556zm0 5.4167h-1.556v-1.8555h1.556z"/>
  </g>
  <g aria-label="}">
   <path d="m16.731 6.8489h-.33203q-1.1133 0-1.6536.625-.54036.61849-.54036 1.7187v.97005q0 1.224-.72916 1.8685-.72265.65104-1.888.65104h-.97656v-.89844h.74219q.88541 0 1.2825-.41016.40364-.41016.40364-1.3216v-1.1393q0-.90495.5013-1.5169.5013-.61849 1.3932-.97656v-.15625q-.89192-.35807-1.3932-.97005-.5013-.61849-.5013-1.5234v-1.1393q0-.91146-.40364-1.3216-.39714-.41016-1.2825-.41016h-.74219v-.89844h.97656q1.1654 0 1.888.65104.72916.64453.72916 1.8685v.97005q0 1.1003.54036 1.7253.54036.61849 1.6536.61849h.33203z"/>
  </g>
 </g>
</svg>
