<svg xmlns="http://www.w3.org/2000/svg" width="24" height="14" viewBox="0 0 24 14">
    <path fill="#E4E4E4" fill-rule="nonzero"
          d="M3.713 5.325c0 .508-.085.887-.255 1.137-.17.249-.44.428-.813.538.372.11.643.29.813.538.17.25.255.629.255 1.137v2.393c0 .36.098.634.295.823.197.19.486.284.868.284.159 0 .287.129.287.287V13.5a.5.5 0 0 1-.5.5H4.24c-.988 0-1.737-.23-2.247-.688-.51-.459-.765-1.122-.765-1.99V8.616c0-.229-.061-.403-.183-.523s-.295-.18-.518-.18H.5a.5.5 0 0 1-.5-.5v-.824a.5.5 0 0 1 .5-.5h.026c.223 0 .396-.06.518-.18s.183-.294.183-.523V2.677c0-.867.255-1.53.765-1.989C2.502.229 3.251 0 4.239 0h.424a.5.5 0 0 1 .5.5v1.038a.287.287 0 0 1-.287.287c-.382 0-.671.095-.868.284-.197.19-.295.464-.295.823v2.393zM12 5.848c-.436 0-.802-.14-1.1-.419a1.376 1.376 0 0 1-.446-1.047c0-.428.149-.775.446-1.04.298-.263.664-.395 1.1-.395.436 0 .802.132 1.1.396.297.264.446.61.446 1.04 0 .418-.149.767-.446 1.046-.298.28-.664.42-1.1.42zm.016 2.468c.446 0 .813.132 1.1.397.286.264.43.61.43 1.04 0 .199-.027.398-.08.597-.053.2-.17.499-.35.898l-.78 1.848a.5.5 0 0 1-.46.306h-.578a.5.5 0 0 1-.48-.642l.513-1.736a1.295 1.295 0 0 1-.63-.487 1.353 1.353 0 0 1-.23-.785c0-.429.145-.775.437-1.04.293-.264.662-.396 1.108-.396zM24 6.588v.824a.5.5 0 0 1-.5.5h-.026c-.223 0-.396.06-.518.18s-.183.294-.183.523v2.708c0 .867-.255 1.53-.765 1.989-.51.459-1.259.688-2.247.688h-.424a.5.5 0 0 1-.5-.5v-1.038c0-.158.128-.287.287-.287.382 0 .671-.095.868-.284.197-.19.295-.464.295-.823V8.675c0-.508.085-.887.255-1.137.17-.249.44-.428.813-.538-.372-.11-.643-.29-.813-.538-.17-.25-.255-.629-.255-1.137V2.932c0-.36-.098-.634-.295-.823-.197-.19-.486-.284-.868-.284a.287.287 0 0 1-.287-.287V.5a.5.5 0 0 1 .5-.5h.424c.988 0 1.737.23 2.247.688.51.459.765 1.122.765 1.99v2.707c0 .229.061.403.183.523s.295.18.518.18h.026a.5.5 0 0 1 .5.5z"/>
</svg>
