<svg xmlns="http://www.w3.org/2000/svg" width="24" height="18" viewBox="0 0 24 18">
    <g fill="#E4E4E4" fill-rule="nonzero">
        <path d="M4.352 17.308h14.604c.758 0 1.352-.594 1.352-1.352V1.352C20.308.593 19.714 0 18.956 0H4.352C3.593 0 3 .593 3 1.352v14.604a1.38 1.38 0 0 0 1.352 1.352zm.033-15.923h14.538v14.538H4.385V1.385z"/>
        <path d="M20.308 1.385C20.308 1.142 19.105 0 18.71 0h-6.7c-.394 0-.702.19-.702.433v4.673c0 .243.308.432.703.432h7.594c.394 0 .703-.19.703-.432V1.385zm-7.616 2.769v-2.77h6.231v2.77h-6.23zM11.956 16.615h7.01c.365 0 .65-.237.65-.54v-5.842c0-.303-.285-.54-.65-.54h-7.01c-.363 0-.648.237-.648.54v5.842c0 .29.3.54.648.54zm.736-5.538h6.231v4.846h-6.23v-4.846z"/>
        <path d="M11.297 1H3.703C3.309 1 3 1.549 3 2.25v13.5c0 .701.309 1.25.703 1.25h7.594c.394 0 1.395-.549 1.395-1.25V2.25c0-.671-1.018-1.25-1.395-1.25zM11 16H4V1h7v15z"/>
    </g>
</svg>
