<svg width="555.25" height="800" fill="#000000" version="1.1" viewBox="0 0 274.65 395.71" xml:space="preserve" xmlns="http://www.w3.org/2000/svg">
<g transform="translate(-60.531)" fill="#e4e4e4">
	<path d="m197.85 0c-75.718 0-137.32 61.609-137.32 137.33 0 72.887 124.59 243.18 129.9 250.39l4.951 6.738c.579.792 1.501 1.255 2.471 1.255.985 0 1.901-.463 2.486-1.255l4.948-6.738c5.308-7.211 129.9-177.5 129.9-250.39 0-75.72-61.61-137.33-137.33-137.33zm0 88.138c27.13 0 49.191 22.062 49.191 49.191 0 27.115-22.062 49.191-49.191 49.191-27.114 0-49.191-22.076-49.191-49.191 0-27.129 22.076-49.191 49.191-49.191z" fill="#e4e4e4"/>
</g>
</svg>
