<svg width="360.52pt" height="360.66pt" version="1.0" viewBox="0 0 360.52 360.66" xmlns="http://www.w3.org/2000/svg">
<g transform="matrix(.1 0 0 -.1 -22.475 380)" fill="#e4e4e4">
    <path d="m1522 3567c-127-127-232-235-232-239s143-149 317-323l316-316 239 238 238 238-317 317c-175 175-320 318-323 318s-110-105-238-233z"/>
    <path d="m849 2893c-280-284-308-315-387-433-100-151-171-322-214-517-31-141-31-434 0-575 124-562 524-985 1067-1127 331-87 685-54 991 93 210 101 291 166 634 510l255 256-634 634-273-270c-248-246-280-274-348-307-77-38-185-67-253-67-65 0-188 30-256 63-90 44-207 159-250 247-78 162-78 347 0 510 27 56 70 103 308 343l276 277-315 315c-173 173-320 315-326 315s-130-120-275-267z"/>
    <path d="m2957 2132-239-239 317-316c174-175 317-317 318-317s109 107 240 238l237 237-635 635z"/>
</g>
</svg>
