<svg width="19.8" height="17.42" version="1.1" viewBox="0 0 21 17.42" xmlns="http://www.w3.org/2000/svg">
    <g transform="translate(-2)" fill="#e4e4e4">
        <path d="m18.815 7.845v-3.602c0-2.34-1.913-4.243-4.265-4.243-2.35 0-4.262 1.903-4.262 4.243v8.933c-.005 1.5645-1.2755 2.8297-2.84 2.828-1.5649.0022-2.836-1.2631-2.841-2.828v-3.7h.876c.17 0 .309-.137.309-.307v-4.333c-.0011012-.17027-.13973-.30755-.31-.307h-.29v-1.62c-.0010961-.16949-.13851-.30646-.308-.307h-1.976c-.17 0-.309.138-.309.308v1.619h-.29c-.17 0-.309.137-.309.307v4.334c0 .17.138.307.31.307h.875v3.7c0 2.34 1.913 4.243 4.263 4.243s4.263-1.903 4.263-4.243v-8.934c.0055-1.5641 1.2759-2.8287 2.84-2.827 1.5645-.00222 2.8355 1.2625 2.841 2.827v3.602z"/>
        <path d="m20.781 13.477.95.652c.083.04.083.162.042.244l-.826 1.424c-.042.082-.166.123-.248.082l-1.033-.407c-.207.163-.455.285-.703.407l-.165 1.058c0 .082-.124.163-.206.163h-1.653c-.124 0-.207-.081-.207-.163l-.165-1.058c-.248-.122-.496-.244-.702-.407l-1.033.407c-.124.04-.207 0-.248-.04l-.826-1.425c-.042-.082-.042-.163.04-.245l.868-.692c-.04-.122-.04-.244-.04-.407 0-.162.04-.285.04-.407l-.867-.65c-.083-.082-.124-.204-.083-.245l.827-1.425c.082-.081.165-.122.289-.081l.991.407c.248-.163.455-.326.703-.407l.165-1.1c0-.08.124-.162.207-.162h1.652c.083 0 .207.081.165.204l.166 1.058c.248.122.496.244.702.407l1.033-.407c.124-.04.207 0 .248.04l.826 1.425c.042.082.042.163-.041.244l-.868.692c.042.122.042.245.042.407 0 .163-.042.285-.042.407zm-3.031.923a1.35 1.35 0 100-2.7 1.35 1.35 0 000 2.7z"/>
    </g>
</svg>
