<?xml version="1.0" encoding="UTF-8"?>
<svg width="4px" height="18px" viewBox="0 0 4 18" version="1.1" xmlns="http://www.w3.org/2000/svg" xmlns:xlink="http://www.w3.org/1999/xlink">
    <title>icons/menu</title>
    <g id="UI-(8-screens)" stroke="none" stroke-width="1" fill="none" fill-rule="evenodd">
        <g id="Icons_set-" transform="translate(-313.000000, -292.000000)" fill="#E4E4E4" fill-rule="nonzero">
            <g id="icons/menu" transform="translate(313.000000, 292.000000)">
                <path d="M2,0 C0.9,0 0,0.9 0,2 C0,3.1 0.9,4 2,4 C3.1,4 4,3.1 4,2 C4,0.9 3.1,0 2,0 Z M2,14 C0.9,14 0,14.9 0,16 C0,17.1 0.9,18 2,18 C3.1,18 4,17.1 4,16 C4,14.9 3.1,14 2,14 Z M2,7 C0.9,7 0,7.9 0,9 C0,10.1 0.9,11 2,11 C3.1,11 4,10.1 4,9 C4,7.9 3.1,7 2,7 Z" id="Shape"></path>
            </g>
        </g>
    </g>
</svg>
