<svg width="7" height="18" version="1.1" viewBox="0 0 7.35 18" xmlns="http://www.w3.org/2000/svg">
 <g transform="translate(-9)" fill="#e4e4e4">
  <path d="m16 10.726v6.672c0 .332-.27.602-.602.602h-.122a1 1 0 01-.78-.374l-4.044-5.043v4.691a.726.726 0 11-1.452 0v-6.672c0-.332.27-.602.602-.602h.122a1 1 0 01.78.374l4.044 5.043v-4.691a.726.726 0 111.452 0zm-.053-3.553-3-6.857a.498.498 0 00-.447-.316.498.498 0 00-.447.316l-3 6.857a.643.643 0 00.022.556.49.49 0 00.425.271h6a.49.49 0 00.425-.271.643.643 0 00.022-.556z"/>
 </g>
</svg>
