<svg width="18.238" height="17.5" version="1.1" viewBox="0 0 18.238 17.5" xmlns="http://www.w3.org/2000/svg">
 <g transform="translate(-3.617 -.267)" fill="none" fill-rule="evenodd">
  <g fill-rule="nonzero">
   <path d="m6.75 7h3.497a.75.75 0 110 1.5h-3.497a.75.75 0 010-1.5zm0 3h3.497a.75.75 0 110 1.5h-3.497a.75.75 0 010-1.5zm0 3h3.497a.75.75 0 110 1.5h-3.497a.75.75 0 010-1.5zm-.75-8.25a.75.75 0 01.75-.75h6.165a.75.75 0 010 1.5h-6.165a.75.75 0 01-.75-.75zm8.394 5.05-.48 1.437a.275.275 0 00.35.348l1.436-.48zm3.75-3.8-3.144 3.144 1.356 1.356 3.144-3.144zm2.615-1.263a1.004 1.004 0 00-.662-.29.885.885 0 00-.628.248l-.644.647 1.352 1.374.643-.648c.346-.348.286-.982-.061-1.331z" fill="#e4e4e4"/>
   <g fill="#000">
    <path d="m21.708 5.748v-.001l.044-.043a1.817 1.817 0 01-.044.044zm.044-.044.066-.067-.067.067zm.066-.066c.048-.049.05-.05 0 0z"/>
   </g>
  </g>
  <path d="m17.367 4v-2.983h-13v16h13v-4.334" stroke="#e4e4e4" stroke-linecap="round" stroke-linejoin="round" stroke-width="1.5"/>
 </g>
</svg>
