<?xml version="1.0" encoding="UTF-8"?>
<svg width="14px" height="17px" viewBox="0 0 14 17" version="1.1" xmlns="http://www.w3.org/2000/svg" xmlns:xlink="http://www.w3.org/1999/xlink">
    <title>icons/notification_enabled_thin</title>
    <g id="UI-(8-screens)" stroke="none" stroke-width="1" fill="none" fill-rule="evenodd">
        <g id="Icons_updates_01.03.21" transform="translate(-383.000000, -431.000000)" fill="#E4E4E4" fill-rule="nonzero">
            <g id="icons/notification_enabled_thin" transform="translate(383.000000, 431.000000)">
                <path d="M13.9176447,13.6 C14.0112237,13.7197977 14.0262761,13.8800768 13.9565265,14.0140147 C13.8867769,14.1479525 13.744198,14.2325581 13.5882331,14.2325581 L0.411766939,14.2325581 C0.255802027,14.2325581 0.113223144,14.1479525 0.0434735146,14.0140147 C-0.0262761146,13.8800768 -0.0112236615,13.7197977 0.0823552859,13.6 L1,12.58 L1,6.3255814 C1,2.83205926 3.36141935,0 7,0 C10.6385806,0 12.59,2.83205926 12.59,6.3255814 L12.59,12.58 L13.9176447,13.6 Z M9.05882283,15.0232558 C9.05882283,16.1149815 8.13705645,17 7,17 C5.86294355,17 4.94117717,16.1149815 4.94117717,15.0232558 L9.05882283,15.0232558 Z" id="Shape"></path>
            </g>
        </g>
    </g>
</svg>