<?xml version="1.0" encoding="UTF-8"?>
<svg width="18px" height="18px" viewBox="0 0 18 18" version="1.1" xmlns="http://www.w3.org/2000/svg" xmlns:xlink="http://www.w3.org/1999/xlink">
    <title>icons/notification_disabled</title>
    <g id="UI-(8-screens)" stroke="none" stroke-width="1" fill="none" fill-rule="evenodd">
        <g id="Icons_updates_01.03.21" transform="translate(-410.000000, -431.000000)" fill="#E4E4E4" fill-rule="nonzero">
            <g id="icons/notification_disabled-" transform="translate(411.000000, 431.000000)">
                <path d="M13.3666496,14.9374099 L1.88754689,14.9374099 L1.88754689,14.9374099 C1.73578096,14.9374099 1.59704067,14.8502872 1.52916888,14.7123646 C1.46129709,14.5744419 1.47594429,14.4093943 1.56700385,14.2860325 L2.88754689,13.352052 L2.88754689,6.79519252 C2.88754689,5.71227761 2.88754689,5.34739106 2.88754689,4.17138788 L0.133474779,1.28988094 C-0.0532116679,1.09455624 -0.0509538759,0.786253098 0.138573232,0.593683522 L0.575962356,0.149273017 C0.769663575,-0.0475376763 1.08623603,-0.0500584031 1.28304672,0.143642816 C1.28494137,0.145507529 1.28682111,0.147387321 1.28868578,0.149282015 L16.4531173,15.5579255 C16.6446809,15.752574 16.6446217,16.0649207 16.4529845,16.2594966 L16.0209143,16.6981926 C15.8271435,16.8949348 15.5105702,16.8973437 15.3138279,16.7035729 C15.3119562,16.7017294 15.3100989,16.6998711 15.3082564,16.6979983 L13.7230742,15.0867512 C13.6290825,14.991214 13.5006712,14.9374099 13.3666496,14.9374099 Z M14.7092684,11.5062795 L4.73957857,1.37654684 C6.70671342,0.0425966639 9.23689391,-0.0825941644 11.3222853,1.05084102 C13.4076768,2.18427621 14.709524,4.39221993 14.7092684,6.79519252 L14.7092684,11.5062795 Z M10.3018016,15.7516317 C10.3018016,16.8758373 9.40485159,17.787186 8.29840764,17.787186 C7.1919637,17.787186 6.29501366,16.8758373 6.29501366,15.7516317 L10.3018016,15.7516317 Z"
                      id="Shape"></path>
            </g>
        </g>
    </g>
</svg>