<?xml version="1.0" encoding="UTF-8"?>
<svg width="22px" height="18px" viewBox="0 0 22 18" version="1.1" xmlns="http://www.w3.org/2000/svg" xmlns:xlink="http://www.w3.org/1999/xlink">
    <title>icons/open</title>
    <g id="UI-(8-screens)" stroke="none" stroke-width="1" fill="none" fill-rule="evenodd">
        <g id="Icons_updates_01.03.21" transform="translate(-379.000000, -283.000000)">
            <g id="icons/open" transform="translate(379.000000, 284.000000)">
                <rect id="Rectangle" fill-opacity="0" fill="#000000" x="0" y="0" width="21.3333333" height="16"></rect>
                <path d="M1.77777778,15.1111111 L1.77777778,0.888888889 C1.77777778,0.397969111 2.17574689,0 2.66666667,0 L9.25688889,0 L11.0346667,1.77777778 L17.7777778,1.77777778 C18.2686976,1.77777778 18.6666667,2.17574689 18.6666667,2.66666667 L18.6666667,7.11111111 L5.33784777,7.15981503 L3.02575737,15.2698821 L5.33333333,7.11111111 L20,7.11111111 L17.9466667,15.3271111 C17.8475919,15.7226054 17.4921595,16 17.0844444,16 L2.66666667,16 C2.17574689,16 1.77777778,15.6020309 1.77777778,15.1111111 Z" id="Path" stroke="#E4E4E4" stroke-width="1.5" stroke-linejoin="round" fill-rule="nonzero"></path>
                <path d="M2.13279595,16 C1.7954358,16 2.10085809,15.3988 3.04906282,14.1964 L4.88159657,7 L20,7 L17.8834235,15.3187 C17.7812972,15.719138 17.4149174,16 16.9946447,16 L2.13279595,16 Z" id="Path-" fill="#E4E4E4" fill-rule="nonzero"></path>
            </g>
        </g>
    </g>
</svg>