<svg width="18.999" height="17.512" version="1.1" viewBox="0 0 18.999 17.512" xmlns="http://www.w3.org/2000/svg">
 <g transform="translate(-3)" fill="#e4e4e4">
  <path d="m19.904 7.886v-3.62c0-2.354-1.924-4.266-4.286-4.266-2.363 0-4.285 1.913-4.285 4.265v8.981c-.0055 1.5728-1.2832 2.8442-2.856 2.842-1.5728.0022-2.8505-1.2692-2.856-2.842v-3.72h.881c.17082 9e-7.30945-.13818.31-.309v-4.355c0-.17121-.13879-.31-.31-.31h-.291v-1.626c-.0005514-.17121-.13979-.30955-.311-.309h-1.987c-.17121 0-.31.13879-.31.31v1.627h-.293c-.17043-3.5e-6-.3089.13757-.31.308v4.355c0 .171.14.31.31.31h.882v3.72c0 2.351 1.922 4.265 4.285 4.265s4.285-1.914 4.285-4.266v-8.98c.005-1.5732 1.2828-2.8452 2.856-2.843 1.5728-.00222 2.8505 1.2692 2.856 2.842v3.621z"/>
  <path d="m21.76 15.75c-.983-.955-1.503-1.47-1.562-1.545a2.75 2.75 0 00.372-1.368c0-1.593-1.3-2.885-2.904-2.885a2.894 2.894 0 00-2.904 2.885c0 1.592 1.3 2.827 2.904 2.827.59 0 1.052-.048 1.432-.272l1.517 1.576c.23.229.744.37 1.144-.031.4-.402.23-.957 0-1.186zm-4.072-1.13a1.81 1.81 0 110-3.618 1.81 1.81 0 010 3.619z"/>
 </g>
</svg>
