<?xml version="1.0" encoding="UTF-8" standalone="no"?>
<svg width="25.857733" height="17.277981" viewBox="0 0 25.857733 17.277981" xmlns="http://www.w3.org/2000/svg">
    <g id="UI-(8-screens)" stroke="none" stroke-width="1" fill="none" fill-rule="evenodd" stroke-linecap="round" stroke-linejoin="round" transform="translate(-0.36097002,-0.3610095)">
        <g id="Icons_set-" transform="translate(-306,-627)" fill="#e4e4e4" stroke="#e4e4e4" stroke-width="1.27806">
            <g id="icons/send" transform="translate(307,628)">
                <polygon id="Path" points="0,5.3477281 0,0 16,7.9995837 0,16 0,10.674554 10.071951,7.9995837 "/>
            </g>
        </g>
    </g>
    <g id="Style-Guide" stroke="none" stroke-width="1" fill="none" fill-rule="evenodd" transform="matrix(1.2088824,0,0,1.2628732,10.089324,0.06115719)">
        <g id="style-guide" transform="translate(-609,-845)" fill="#f7b500">
            <g id="icons/subwindows/warning/active" transform="translate(609,845)">
                <g id="warning-(1)">
                    <path d="M 12.884882,9.7765742 7.237229,0.40717141 c -0.3273616,-0.54289521 -1.1470964,-0.54289521 -1.474458,0 L 0.11511791,9.7765742 C -0.21224369,10.319469 0.19762368,11 0.8523469,11 H 12.147653 c 0.654723,0 1.064591,-0.680531 0.737229,-1.2234258 z M 6.5079844,3.2924173 c 0.3619608,0 0.6547232,0.2880148 0.6440773,0.6346521 l -0.106459,3.5581302 c -0.00798,0.2803684 -0.2475173,0.5021143 -0.5402798,0.5021143 -0.2927624,0 -0.5322952,-0.2242947 -0.5402797,-0.5021143 L 5.8612456,3.9270694 C 5.8532612,3.5804321 6.1433621,3.2924173 6.5079844,3.2924173 Z M 6.5,9.7281469 c -0.3699452,0 -0.6706921,-0.2880148 -0.6706921,-0.6422986 0,-0.3542837 0.3007469,-0.6422985 0.6706921,-0.6422985 0.3699452,0 0.6706921,0.2880148 0.6706921,0.6422985 0,0.3542838 -0.3007469,0.6422986 -0.6706921,0.6422986 z" id="Shape" fill-rule="nonzero"/>
                </g>
            </g>
        </g>
    </g>
</svg>
