<svg xmlns="http://www.w3.org/2000/svg" width="24" height="18" viewBox="0 0 24 18">
    <path fill="#E4E4E4" fill-rule="nonzero" d="M18.486 9.939c0-.271.09-.542.09-.904 0-.361 0-.632-.09-.903l1.898-1.536c.18-.18.18-.362.09-.542L18.667 2.89c-.09-.09-.271-.18-.542-.09l-2.26.904c-.451-.362-.993-.633-1.535-.904l-.362-2.35c.09-.27-.18-.451-.361-.451H9.993c-.181 0-.452.18-.452.361l-.361 2.44c-.543.18-.994.542-1.536.904L5.475 2.8c-.271-.09-.452 0-.632.18L3.035 6.145c-.09.09 0 .362.181.542l1.898 1.446c0 .271-.09.542-.09.903 0 .362 0 .633.09.904l-1.898 1.536c-.18.18-.18.361-.09.542l1.807 3.163c.09.09.27.18.542.09l2.259-.904c.452.362.994.633 1.536.904l.361 2.35c0 .18.181.36.452.36h3.614c.181 0 .452-.18.452-.36l.361-2.35c.543-.271 1.085-.542 1.536-.904l2.26.904c.18.09.451 0 .541-.18l1.808-3.163c.09-.18.09-.452-.09-.542l-2.079-1.446zM11.8 12.635c-1.954 0-3.6-1.645-3.6-3.6 0-1.954 1.646-3.6 3.6-3.6 1.954 0 3.6 1.646 3.6 3.6 0 1.955-1.646 3.6-3.6 3.6z"/>
</svg>
