<svg xmlns="http://www.w3.org/2000/svg" width="24" height="18" viewBox="0 0 24 18">
    <g fill="#E4E4E4" fill-rule="nonzero">
        <path d="M11.938 9.365c.358 0 .668-.132.93-.397.26-.265.392-.578.392-.94v-6.69c0-.362-.131-.676-.393-.94A1.261 1.261 0 0 0 11.938 0c-.358 0-.667.133-.929.397a1.293 1.293 0 0 0-.392.941v6.69c0 .362.13.675.392.94.262.265.571.397.93.397z"/>
        <path d="M19.035 5.78a7.852 7.852 0 0 0-2.338-2.822 1.27 1.27 0 0 0-.98-.261 1.221 1.221 0 0 0-.868.522c-.22.293-.304.622-.252.988.051.366.222.66.51.883a5.322 5.322 0 0 1 1.564 1.892 5.31 5.31 0 0 1 .553 2.383 5.27 5.27 0 0 1-.418 2.075 5.395 5.395 0 0 1-1.13 1.709 5.323 5.323 0 0 1-1.689 1.144 5.093 5.093 0 0 1-2.049.424 5.093 5.093 0 0 1-2.049-.424 5.324 5.324 0 0 1-1.688-1.144 5.4 5.4 0 0 1-1.13-1.709 5.27 5.27 0 0 1-.418-2.075c0-.843.184-1.637.552-2.383A5.323 5.323 0 0 1 8.77 5.09c.289-.223.46-.517.511-.883a1.284 1.284 0 0 0-.253-.988c-.213-.3-.5-.473-.862-.522a1.293 1.293 0 0 0-.986.261A7.85 7.85 0 0 0 4.841 5.78a7.989 7.989 0 0 0-.831 3.585c0 1.087.21 2.125.63 3.115.42.99.984 1.843 1.693 2.56a7.985 7.985 0 0 0 2.529 1.715 7.63 7.63 0 0 0 3.076.637 7.63 7.63 0 0 0 3.076-.637 7.99 7.99 0 0 0 2.53-1.714 8.105 8.105 0 0 0 1.693-2.561c.42-.99.63-2.028.63-3.115a7.988 7.988 0 0 0-.832-3.585z"/>
    </g>
</svg>
