<?xml version="1.0" encoding="UTF-8"?>
<svg width="18px" height="18px" viewBox="0 0 18 18" version="1.1" xmlns="http://www.w3.org/2000/svg" xmlns:xlink="http://www.w3.org/1999/xlink">
    <title>icons/tools</title>
    <g id="UI-(8-screens)" stroke="none" stroke-width="1" fill="none" fill-rule="evenodd">
        <g id="Icons_updates_01.03.21" transform="translate(-381.000000, -189.000000)" fill="#E4E4E4">
            <g id="icons/tools" transform="translate(381.000000, 189.000000)">
                <path d="M4.87108536,2.4158453e-13 C7.56131152,2.4158453e-13 9.74217072,2.13276259 9.74217072,4.76365857 C9.74217072,5.4626522 9.58822535,6.12648291 9.31168279,6.72449389 L11.6875425,9.04773116 C11.7557333,9.01942976 11.7803307,9.03473465 11.7472255,9.10632317 L17.5244307,14.7561181 C18.1585231,15.3762262 18.1585231,16.3816202 17.5244307,17.0017282 L16.9792159,17.5349189 C16.3451236,18.155027 15.3170566,18.155027 14.6829642,17.5349189 L8.72162102,11.705047 C8.6869386,11.7153271 8.677437,11.7048388 8.68929523,11.6770151 L6.28607833,9.32321771 C5.83828011,9.45594864 5.3632052,9.52731713 4.87108536,9.52731713 C2.1808592,9.52731713 -1.22568622e-13,7.39455455 -1.22568622e-13,4.76365857 C-1.22568622e-13,4.02823458 0.170410302,3.33173427 0.474721342,2.70986204 L4.01844041,6.175428 L6.31469206,3.92981782 L2.77097301,0.464251849 C3.40686928,0.166652077 4.11907659,2.4158453e-13 4.87108536,2.4158453e-13 Z" id="Combined-Shape"></path>
            </g>
        </g>
    </g>
</svg>
