<svg width="311pt" height="229.82pt" version="1.0" viewBox="0 0 311 229.82" xmlns="http://www.w3.org/2000/svg">
    <g transform="matrix(.1 0 0 -.1 -34.5 270.87)" fill="#e4e4e4">
        <path d="m1473 2696.9c-77-16.541-156-54.847-214-104.47-67-56.588-105-108.82-129-178.47-19-53.106-20-84.446-20-848.82 0-847.95 0-841.85 49-926.3 62-105.34 195-193.27 330-218.52 70-13.059 751-13.059 823 0 124 22.635 253 104.47 317 202.85 62 94.893 61 74 61 938.49 0 679.92-2 793.97-15 838.37-44 144.52-194 269.01-363 299.48-77 13.929-771 11.318-839-2.6118z" stroke-width=".93305"/>
        <path d="m782 2140c-62-38-62-38-62-580s0-542 62-580c39-24 78-26 118-5 62 32 60 9 60 585s2 553-60 585c-40 21-79 19-118-5z"/>
        <path d="m2893 2140c-17-10-37-28-42-39-7-13-11-192-11-543 0-574-2-551 60-583s139-4 166 60c21 51 21 999 0 1050-28 67-111 93-173 55z"/>
        <path d="m415 1911c-11-5-31-21-45-36l-25-27v-578l33-32c28-28 39-33 82-33s54 5 82 33l33 32v580l-31 31c-33 33-92 46-129 30z"/>
        <path d="m3295 1911c-11-5-31-21-45-36l-25-27v-578l33-32c28-28 39-33 82-33s54 5 82 33l33 32v580l-31 31c-33 33-92 46-129 30z"/>
    </g>
</svg>
