<?xml version="1.0" encoding="UTF-8"?>
<svg width="13px" height="11px" viewBox="0 0 13 11" version="1.1" xmlns="http://www.w3.org/2000/svg" xmlns:xlink="http://www.w3.org/1999/xlink">
    <!-- Generator: sketchtool 53.2 (72643) - https://sketchapp.com -->
    <title>291BC43A-767F-4CFE-923F-4CECF4C62FD5</title>
    <desc>Created with sketchtool.</desc>
    <g id="Style-Guide" stroke="none" stroke-width="1" fill="none" fill-rule="evenodd">
        <g id="style-guide" transform="translate(-609.000000, -845.000000)" fill="#4A4A4A">
            <g id="icons/subwindows/warning/active" transform="translate(609.000000, 845.000000)">
                <g id="warning-(1)">
                    <path d="M12.8848821,9.77657418 L7.23722899,0.407171407 C6.90986738,-0.135723802 6.09013262,-0.135723802 5.76277101,0.407171407 L0.115117914,9.77657418 C-0.212243694,10.3194694 0.197623685,11 0.8523469,11 L12.1476531,11 C12.8023763,11 13.2122437,10.3194694 12.8848821,9.77657418 Z M6.50798443,3.29241731 C6.86994523,3.29241731 7.16270764,3.58043214 7.15206174,3.92706945 L7.04560268,7.48519956 C7.03761825,7.76556798 6.79808537,7.98731391 6.50532295,7.98731391 C6.21256054,7.98731391 5.97302766,7.76301917 5.96504323,7.48519956 L5.86124564,3.92706945 C5.85326121,3.58043214 6.14336215,3.29241731 6.50798443,3.29241731 Z M6.5,9.7281469 C6.13005477,9.7281469 5.82930793,9.44013207 5.82930793,9.08584835 C5.82930793,8.73156462 6.13005477,8.44354979 6.5,8.44354979 C6.86994523,8.44354979 7.17069207,8.73156462 7.17069207,9.08584835 C7.17069207,9.44013207 6.86994523,9.7281469 6.5,9.7281469 Z" id="Shape" fill-rule="nonzero"></path>
                </g>
            </g>
        </g>
    </g>
</svg>
