<svg xmlns="http://www.w3.org/2000/svg" width="19" height="12" viewBox="0 0 19 12">
    <g fill="none" fill-rule="nonzero">
        <path fill="#FFF" d="M11.013 8.764a1.46 1.46 0 1 0 0 2.918 1.46 1.46 0 0 0 0-2.918zm0-5.835A7.28 7.28 0 0 0 5.43 5.537a.729.729 0 1 0 1.117.939 5.824 5.824 0 0 1 4.466-2.088c1.723 0 3.35.76 4.466 2.088a.727.727 0 0 0 1.027.089.729.729 0 0 0 .09-1.028 7.283 7.283 0 0 0-5.583-2.608zm0 2.917c-1.293 0-2.514.57-3.35 1.565a.729.729 0 1 0 1.117.939 2.912 2.912 0 0 1 4.466 0 .727.727 0 0 0 1.027.089.729.729 0 0 0 .09-1.028 4.367 4.367 0 0 0-3.35-1.565z"/>
        <path fill="#787878" d="M18.829 3.664A10.192 10.192 0 0 0 11.013.012c-3.016 0-5.865 1.33-7.816 3.652a.729.729 0 1 0 1.117.938 8.738 8.738 0 0 1 6.699-3.132 8.739 8.739 0 0 1 6.699 3.132.729.729 0 1 0 1.117-.938z"/>
    </g>
</svg>
