<?xml version="1.0" encoding="UTF-8"?>
<svg width="17px" height="13px" viewBox="0 0 17 13" version="1.1" xmlns="http://www.w3.org/2000/svg" xmlns:xlink="http://www.w3.org/1999/xlink">
    <title>icons/connection/disabled</title>
    <g id="UI-(8-screens)" stroke="none" stroke-width="1" fill="none" fill-rule="evenodd">
        <g id="Icons_updates_01.03.21" transform="translate(-382.000000, -102.000000)" fill="#787878" fill-rule="nonzero">
            <g id="wifi-connection-signal-symbol" transform="translate(382.000000, 102.000000)">
                <path d="M8.51369984,9.49428385 C7.65815334,9.49428385 6.96381566,10.202236 6.96381566,11.0745579 C6.96381566,11.9468798 7.65818108,12.654832 8.51369984,12.654832 C9.3692186,12.654832 10.063584,11.9468798 10.063584,11.0745579 C10.063584,10.202236 9.3692186,9.49428385 8.51369984,9.49428385 Z M16.8179641,3.96910712 C14.7452675,1.45435998 11.7183246,0.0126112017 8.51369984,0.0126112017 C5.30907504,0.0126112017 2.28263132,1.45435998 0.20940783,3.96910712 C-0.0659755302,4.30307776 -0.0236003263,4.80138989 0.304474715,5.08214464 C0.449626427,5.20644698 0.625810767,5.26758021 0.801967374,5.26758021 C1.0230783,5.26758021 1.24266395,5.17169549 1.39607993,4.98575095 C3.17328711,2.82974443 5.76779772,1.59291354 8.5136721,1.59291354 C11.2595465,1.59291354 13.8540571,2.82974443 15.6312365,4.98524198 C15.7846803,5.17118651 16.0042382,5.26707123 16.2253768,5.26707123 C16.4015612,5.26707123 16.5782447,5.20647526 16.7233964,5.08163567 C17.0509445,4.80136161 17.0933475,4.30254051 16.8179641,3.96910712 Z M8.51369984,3.17315933 C6.22452365,3.17315933 4.06294454,4.2029516 2.58230832,5.99869059 C2.30695269,6.33266123 2.34930016,6.83097336 2.6773752,7.11172811 C2.82252692,7.23603045 2.99921044,7.29716368 3.17539478,7.29716368 C3.39650571,7.29716368 3.61609135,7.20127896 3.76900816,7.01533442 C4.95362806,5.57782708 6.68330179,4.75343339 8.51372757,4.75343339 C10.3441533,4.75343339 12.0737993,5.57782708 13.2589462,7.01533442 C13.4123899,7.2018162 13.6319478,7.29716368 13.8525318,7.29716368 C14.0287162,7.29716368 14.2053997,7.2365677 14.3505791,7.11172811 C14.6786264,6.83097336 14.7209739,6.33215226 14.445646,5.99869059 C12.9644551,4.20297988 10.802876,3.17315933 8.51369984,3.17315933 Z M8.51369984,6.33370745 C7.13947308,6.33370745 5.84220392,6.95159978 4.95465416,8.02881131 C4.6792708,8.36278195 4.721646,8.86109407 5.04972104,9.14184883 C5.19487276,9.26615117 5.37155628,9.32725612 5.54774062,9.32725612 C5.76885155,9.32725612 5.98843719,9.23139967 6.141354,9.04545514 C6.73394127,8.32641871 7.59875041,7.91395324 8.51369984,7.91395324 C9.42864927,7.91395324 10.2934861,8.32641871 10.8860457,9.04545514 C11.0394894,9.23193692 11.2590473,9.32725612 11.4796591,9.32725612 C11.6558434,9.32725612 11.8325269,9.26668842 11.9776786,9.14184883 C12.3057537,8.8610658 12.3481011,8.36275367 12.0727455,8.02881131 C11.185168,6.95159978 9.88789886,6.33370745 8.51369984,6.33370745 Z"
                      id="Shape"></path>
            </g>
        </g>
    </g>
</svg>