<?xml version="1.0" standalone="no"?>
<!DOCTYPE svg PUBLIC "-//W3C//DTD SVG 20010904//EN" "http://www.w3.org/TR/2001/REC-SVG-20010904/DTD/svg10.dtd">
<svg version="1.0"
     xmlns="http://www.w3.org/2000/svg" width="634.000000pt" height="342.000000pt" viewBox="0 0 634.000000 342.000000" preserveAspectRatio="xMidYMid meet">
    <metadata>
        Created by potrace 1.16, written by Peter Selinger 2001-2019
    </metadata>
    <g transform="translate(0.000000,342.000000) scale(0.100000,-0.100000)" fill="#FFFFFF" stroke="none">
        <path d="M27 3393 c-4 -3 -7 -227 -7 -497 l0 -491 490 490 c270 269 490 493 490 497 0 10 -964 11 -973 1z"/>
        <path d="M2120 2905 c272 -272 496 -495 497 -495 1 0 1 222 0 493 l-2 492 -495 3 -495 2 495 -495z"/>
        <path d="M3080 2930 c0 -258 3 -470 8 -470 4 0 127 120 275 268 l267 267 0 203 0 202 -275 0 -275 0 0 -470z"/>
        <path d="M4778 3370 c-544 -115 -940 -533 -1023 -1080 -69 -451 123 -922 489 -1199 166 -126 353 -209 556 -247 129 -24 358 -21 485 6 494 108 864 463 990 950 33 128 45 358 26 490 -51 343 -251 671 -531 868 -86 60 -245 141 -340 172 -194 62 -466 79 -652 40z m421 -550 c257 -62 462 -260 537 -520 26 -91 26 -289 0 -380 -34 -119 -102 -236 -185 -320 -407 -411 -1091 -226 -1237 335 -24 94 -24 256 0 350 20 75 69 181 116 250 47 69 173 179 252 220 156 82 345 106 517 65z"/>
        <path d="M612 2827 c-270 -270 -492 -496 -492 -502 0 -5 46 -56 102 -112 l103 -103 -108 -108 -107 -107 497 -497 498 -498 107 107 108 108 108 -108 107 -107 498 498 497 497 -107 108 -108 107 108 107 107 108 -497 497 -498 498 -107 -107 -108 -108 -108 108 -107 107 -493 -493z m549 -267 c78 -77 144 -140 148 -140 3 0 69 63 146 140 77 77 144 140 150 140 6 0 75 -65 155 -145 l145 -145 -149 -149 -148 -148 146 -146 c80 -80 146 -148 146 -153 0 -4 -66 -72 -146 -152 l-146 -145 -149 149 -149 149 -150 -150 -150 -150 -145 145 c-80 80 -145 149 -145 155 0 6 65 75 145 155 l145 145 -147 147 -148 148 145 145 c80 80 148 145 153 145 4 0 71 -63 148 -140z"/>
        <path d="M3348 2578 l-268 -270 0 -744 0 -744 275 0 275 0 0 1015 c0 558 -3 1014 -7 1014 -5 -1 -128 -123 -275 -271z"/>
        <path d="M2700 2120 l0 -80 135 0 135 0 0 80 0 80 -135 0 -135 0 0 -80z"/>
        <path d="M20 1307 l0 -497 490 0 c270 0 490 3 490 8 0 4 -220 228 -490 497l-490 490 0 -498z"/>
        <path d="M2113 1303 c-266 -266 -483 -486 -483 -489 0 -2 222 -3 493 -2 l492 3 3 488 c2 387 0 487 -10 486 -7 -1 -230 -220 -495 -486z"/>
        <path d="M1130 711 c-101 -21 -195 -98 -246 -200 -24 -48 -28 -68 -29 -141 0 -77 3 -92 33 -152 62 -127 179 -201 317 -201 111 0 214 51 277 137 43 59 39 66 -38 66 -60 0 -70 -3 -102 -31 -87 -77 -181 -78 -279 -3 -71 54 -105 183 -69 268 20 48 75 107 121 127 78 36 154 22 236 -42 32 -25 45 -29 103 -29 36 0 66 4 66 8 0 16 -56 87 -91 116 -75 64 -205 97 -299 77z"/>
        <path d="M4812 710 c-107 -23 -223 -123 -262 -228 -30 -79 -25 -187 14 -265 52 -107 166 -185 297 -203 52 -7 146 14 206 45 91 47 168 157 180 259 l6 52 -222 0 -221 0 0 -55 0 -55 134 0 c74 0 137 -4 140 -8 10 -16 -49 -75 -98 -98 -92 -43 -183 -27 -258 46 -80 78 -95 176 -43 280 66 131 256 161 355 57 23 -24 32 -27 98 -27 89 0 91 8 21 84 -88 97 -223 142 -347 116z"/>
        <path d="M17 704 c-4 -4 -7 -31 -7 -61 l0 -53 65 0 65 0 0 -280 0 -280 60 0 60 0 2 277 3 278 63 3 63 3 -3 57 -3 57 -180 3 c-100 2 -184 0 -188 -4z"/>
        <path d="M447 704 c-4 -4 -7 -157 -7 -341 l0 -333 185 0 185 0 0 55 0 54 -117 3 -118 3 -3 77 -3 77 113 3 113 3 3 58 3 57 -116 0 -115 0 0 85 0 85 120 0 121 0 -3 58 -3 57 -176 3 c-96 1 -178 -1 -182 -4z"/>
        <path d="M1577 704 c-4 -4 -7 -157 -7 -341 l0 -333 65 0 65 0 0 140 0 140 120 0 120 0 0 -140 0 -140 65 0 65 0 -2 338 -3 337 -60 0 -60 0 -3 -137 -3 -138 -119 0 -119 0 -3 138 -3 137 -55 3 c-31 2 -59 0 -63 -4z"/>
        <path d="M2127 704 c-4 -4 -7 -157 -7 -341 l0 -333 65 0 65 0 2 241 3 240 36 -63 c20 -35 46 -79 57 -98 10 -19 55 -98 100 -175 l80 -140 71 -3 71 -3 0 339 0 339 -60 2 -60 2 0 -248 c0 -147 -4 -243 -9 -238 -8 9 -114 192 -196 338 -15 27 -39 70 -54 95 l-27 47 -65 3 c-36 2 -68 0 -72 -4z"/>
        <path d="M3004 700 c-108 -22 -214 -111 -253 -213 -61 -163 12 -348 167 -424 50 -25 68 -28 152 -28 80 0 103 4 143 24 67 33 134 101 165 169 38 81 38 193 1 272 -49 106 -128 171 -238 196 -62 15 -77 16 -137 4z m154 -129 c84 -43 127 -114 126 -206 -1 -177 -182 -281 -331 -189 -151 94 -128 336 39 404 40 16 126 11 166 -9z"/>
        <path d="M3467 703 c-4 -3 -7 -156 -7 -340 l0 -333 165 0 165 0 0 55 0 55 -100 0 -100 0 -2 283 -3 282 -56 3 c-31 1 -59 -1 -62 -5z"/>
        <path d="M4052 694 c-105 -28 -170 -80 -221 -176 -75 -143 -35 -319 94 -417 171 -130 424 -73 517 117 30 61 37 190 15 256 -37 108 -128 191 -244 221 -69 18 -92 18 -161 -1z m177 -123 c48 -25 95 -79 111 -126 7 -20 10 -66 8 -101 -5 -84 -41 -138 -118 -177 -47 -25 -63 -28 -113 -24 -72 6 -127 40 -167 103 -36 57 -45 111 -30 173 14 57 65 123 119 151 49 26 139 26 190 1z"/>
        <path d="M5307 704 c-4 -4 -7 -157 -7 -341 l0 -333 65 0 65 0 -2 338 -3 337 -55 3 c-31 2 -59 0 -63 -4z"/>
        <path d="M5487 704 c-4 -4 -7 -157 -7 -341 l0 -333 185 0 185 0 0 55 0 55 -120 0 -120 0 0 80 0 79 113 3 112 3 3 58 3 57 -116 0 -115 0 0 85 0 85 120 0 121 0 -3 58 -3 57 -176 3 c-96 1 -178 -1 -182 -4z"/>
        <path d="M6030 694 c-76 -33 -113 -91 -113 -176 0 -46 5 -65 27 -96 27 -40 44 -50 151 -97 79 -35 95 -50 95 -95 0 -76 -97 -113 -147 -55 -13 14 -23 33 -23 41 0 11 -15 14 -65 14 -36 0 -65 -3 -65 -7 0 -5 5 -25 10 -45 45 -161 289 -194 380 -52 25 39 30 59 30 106 0 111 -39 158 -176 212 -88 35 -112 63 -94 110 21 58 101 59 125 3 13 -32 14 -32 74 -29 60 4 61 4 55 30 -25 112 -160 181 -264 136z"/>
    </g>
</svg>
