<svg width="630pt" height="338.74pt" version="1.0" viewBox="0 0 630 338.74" xmlns="http://www.w3.org/2000/svg">
    <g transform="matrix(.1 0 0 -.1 -1 340)" fill="#e4e4e4">
        <path d="m27 3393c-4-3-7-227-7-497v-491l490 490c270 269 490 493 490 497 0 10-964 11-973 1z"/>
        <path d="m2120 2905c272-272 496-495 497-495s1 222 0 493l-2 492-495 3-495 2z"/>
        <path d="m3080 2930c0-258 3-470 8-470 4 0 127 120 275 268l267 267v405h-550z"/>
        <path d="m4778 3370c-544-115-940-533-1023-1080-69-451 123-922 489-1199 166-126 353-209 556-247 129-24 358-21 485 6 494 108 864 463 990 950 33 128 45 358 26 490-51 343-251 671-531 868-86 60-245 141-340 172-194 62-466 79-652 40zm421-550c257-62 462-260 537-520 26-91 26-289 0-380-34-119-102-236-185-320-407-411-1091-226-1237 335-24 94-24 256 0 350 20 75 69 181 116 250s173 179 252 220c156 82 345 106 517 65z"/>
        <path d="m612 2827c-270-270-492-496-492-502 0-5 46-56 102-112l103-103-215-215 995-995 215 215 215-215 995 995-107 108-108 107 108 107 107 108-995 995-215-215-215 215zm549-267c78-77 144-140 148-140 3 0 69 63 146 140s144 140 150 140 75-65 155-145l145-145-297-297 146-146c80-80 146-148 146-153 0-4-66-72-146-152l-146-145-298 298-300-300-145 145c-80 80-145 149-145 155s65 75 145 155l145 145-295 295 145 145c80 80 148 145 153 145 4 0 71-63 148-140z"/>
        <path d="m3348 2578-268-270v-1488h550v1015c0 558-3 1014-7 1014-5-1-128-123-275-271z"/>
        <path d="m2700 2120v-80h270v160h-270z"/>
        <path d="m20 1307v-497h490c270 0 490 3 490 8 0 4-220 228-490 497l-490 490z"/>
        <path d="m2113 1303c-266-266-483-486-483-489 0-2 222-3 493-2l492 3 3 488c2 387 0 487-10 486-7-1-230-220-495-486z"/>
        <path d="m1130 711c-101-21-195-98-246-200-24-48-28-68-29-141 0-77 3-92 33-152 62-127 179-201 317-201 111 0 214 51 277 137 43 59 39 66-38 66-60 0-70-3-102-31-87-77-181-78-279-3-71 54-105 183-69 268 20 48 75 107 121 127 78 36 154 22 236-42 32-25 45-29 103-29 36 0 66 4 66 8 0 16-56 87-91 116-75 64-205 97-299 77z"/>
        <path d="m4812 710c-107-23-223-123-262-228-30-79-25-187 14-265 52-107 166-185 297-203 52-7 146 14 206 45 91 47 168 157 180 259l6 52h-443v-110h134c74 0 137-4 140-8 10-16-49-75-98-98-92-43-183-27-258 46-80 78-95 176-43 280 66 131 256 161 355 57 23-24 32-27 98-27 89 0 91 8 21 84-88 97-223 142-347 116z"/>
        <path d="m17 704c-4-4-7-31-7-61v-53h130v-560h120l2 277 3 278 126 6-6 114-180 3c-100 2-184 0-188-4z"/>
        <path d="m447 704c-4-4-7-157-7-341v-333h370v109l-117 3-118 3-6 154 226 6 3 58 3 57h-231v170h241l-3 58-3 57-176 3c-96 1-178-1-182-4z"/>
        <path d="m1577 704c-4-4-7-157-7-341v-333h130v280h240v-280h130l-2 338-3 337h-120l-3-137-3-138h-238l-3 138-3 137-55 3c-31 2-59 0-63-4z"/>
        <path d="m2127 704c-4-4-7-157-7-341v-333h130l2 241 3 240 36-63c20-35 46-79 57-98 10-19 55-98 100-175l80-140 142-6v678l-120 4v-248c0-147-4-243-9-238-8 9-114 192-196 338-15 27-39 70-54 95l-27 47-65 3c-36 2-68 0-72-4z"/>
        <path d="m3004 700c-108-22-214-111-253-213-61-163 12-348 167-424 50-25 68-28 152-28 80 0 103 4 143 24 67 33 134 101 165 169 38 81 38 193 1 272-49 106-128 171-238 196-62 15-77 16-137 4zm154-129c84-43 127-114 126-206-1-177-182-281-331-189-151 94-128 336 39 404 40 16 126 11 166-9z"/>
        <path d="m3467 703c-4-3-7-156-7-340v-333h330v110h-200l-2 283-3 282-56 3c-31 1-59-1-62-5z"/>
        <path d="m4052 694c-105-28-170-80-221-176-75-143-35-319 94-417 171-130 424-73 517 117 30 61 37 190 15 256-37 108-128 191-244 221-69 18-92 18-161-1zm177-123c48-25 95-79 111-126 7-20 10-66 8-101-5-84-41-138-118-177-47-25-63-28-113-24-72 6-127 40-167 103-36 57-45 111-30 173 14 57 65 123 119 151 49 26 139 26 190 1z"/>
        <path d="m5307 704c-4-4-7-157-7-341v-333h130l-2 338-3 337-55 3c-31 2-59 0-63-4z"/>
        <path d="m5487 704c-4-4-7-157-7-341v-333h370v110h-240v159l113 3 112 3 3 58 3 57h-231v170h241l-3 58-3 57-176 3c-96 1-178-1-182-4z"/>
        <path d="m6030 694c-76-33-113-91-113-176 0-46 5-65 27-96 27-40 44-50 151-97 79-35 95-50 95-95 0-76-97-113-147-55-13 14-23 33-23 41 0 11-15 14-65 14-36 0-65-3-65-7 0-5 5-25 10-45 45-161 289-194 380-52 25 39 30 59 30 106 0 111-39 158-176 212-88 35-112 63-94 110 21 58 101 59 125 3 13-32 14-32 74-29 60 4 61 4 55 30-25 112-160 181-264 136z"/>
    </g>
</svg>
