<?xml version="1.0" standalone="no"?>
<!DOCTYPE svg PUBLIC "-//W3C//DTD SVG 20010904//EN" "http://www.w3.org/TR/2001/REC-SVG-20010904/DTD/svg10.dtd">
<svg version="1.0"
     xmlns="http://www.w3.org/2000/svg" width="300.000000pt" height="342.000000pt" viewBox="0 0 300.000000 342.000000" preserveAspectRatio="xMidYMid meet">
    <metadata>
        Created by potrace 1.16, written by Peter Selinger 2001-2019
    </metadata>
    <g transform="translate(15.000000,342.000000) scale(0.100000,-0.100000)" fill="#FFFFFF" stroke="none">
        <path d="M27 3393 c-4 -3 -7 -227 -7 -497 l0 -491 490 490 c270 269 490 493 490 497 0 10 -964 11 -973 1z"/>
        <path d="M2120 2905 c272 -272 496 -495 497 -495 1 0 1 222 0 493 l-2 492 -495 3 -495 2 495 -495z"/>
        <path d="M612 2827 c-270 -270 -492 -496 -492 -502 0 -5 46 -56 102 -112 l103 -103 -108 -108 -107 -107 497 -497 498 -498 107 107 108 108 108 -108 107 -107 498 498 497 497 -107 108 -108 107 108 107 107 108 -497 497 -498 498 -107 -107 -108 -108 -108 108 -107 107 -493 -493z m549 -267 c78 -77 144 -140 148 -140 3 0 69 63 146 140 77 77 144 140 150 140 6 0 75 -65 155 -145 l145 -145 -149 -149 -148 -148 146 -146 c80 -80 146 -148 146 -153 0 -4 -66 -72 -146 -152 l-146 -145 -149 149 -149 149 -150 -150 -150 -150 -145 145 c-80 80 -145 149 -145 155 0 6 65 75 145 155 l145 145 -147 147 -148 148 145 145 c80 80 148 145 153 145 4 0 71 -63 148 -140z"/>
        <path d="M20 1307 l0 -497 490 0 c270 0 490 3 490 8 0 4 -220 228 -490 497l-490 490 0 -498z"/>
        <path d="M2113 1303 c-266 -266 -483 -486 -483 -489 0 -2 222 -3 493 -2 l492 3 3 488 c2 387 0 487 -10 486 -7 -1 -230 -220 -495 -486z"/>
    </g>
</svg>
