<svg width="323pt" height="325pt" version="1.0" viewBox="0 0 323 325" xmlns="http://www.w3.org/2000/svg">
    <g transform="matrix(.1 0 0 -.1 -2 406)" fill="#e4e4e4">
        <path d="m27 3393c-4-3-7-227-7-497v-491l490 490c270 269 490 493 490 497 0 10-964 11-973 1z"/>
        <path d="m2120 2905c272-272 496-495 497-495s1 222 0 493l-2 492-495 3-495 2z"/>
        <path d="m612 2827c-270-270-492-496-492-502 0-5 46-56 102-112l103-103-215-215 995-995 215 215 215-215 995 995-107 108-108 107 108 107 107 108-995 995-215-215-215 215zm549-267c78-77 144-140 148-140 3 0 69 63 146 140s144 140 150 140 75-65 155-145l145-145-297-297 146-146c80-80 146-148 146-153 0-4-66-72-146-152l-146-145-298 298-300-300-145 145c-80 80-145 149-145 155s65 75 145 155l145 145-295 295 145 145c80 80 148 145 153 145 4 0 71-63 148-140z"/>
        <path d="m20 1307v-497h490c270 0 490 3 490 8 0 4-220 228-490 497l-490 490z"/>
        <path d="m2113 1303c-266-266-483-486-483-489 0-2 222-3 493-2l492 3 3 488c2 387 0 487-10 486-7-1-230-220-495-486z"/>
    </g>
    <circle cx="259" cy="64" r="64" fill="#32C5FF" stroke-width="0"/>
</svg>
