# Blender v2.92.0 OBJ File: ''
# www.blender.org
o Arrow
v -0.015625 0.198874 0.000000
v -0.015625 0.000000 -0.198874
v -0.015625 0.000000 0.198874
v -0.015625 -0.198874 0.000000
v 2.015625 0.000000 -0.198873
v 2.015625 -0.198874 0.000000
v 2.015625 0.198874 0.000000
v 2.015625 0.000000 0.198874
v 2.000000 0.687500 0.000000
v 2.000000 0.000000 0.687500
v 3.187500 0.000000 0.000002
v 2.000000 0.000000 -0.687500
v 2.000000 -0.687500 0.000000
vt 0.099437 0.492188
vt -0.000000 0.492188
vt 0.500000 0.492188
vt 0.599437 0.492188
vt 0.000000 1.507813
vt 0.599437 1.507813
vt 0.099437 1.507813
vt 0.500000 1.507813
vt 0.343750 1.500000
vt 0.500000 1.500000
vt 0.000000 2.093750
vt 0.000000 1.500000
vt -0.343750 1.500000
vn -1.0000 0.0000 0.0000
vn 0.0000 -0.7071 -0.7071
vn 1.0000 0.0000 0.0000
vn 0.0000 0.7071 0.7071
vn 0.0000 0.7071 -0.7071
vn 0.0000 -0.7071 0.7071
vn 0.3789 0.6544 0.6544
vn 0.3789 0.6544 -0.6544
vn 0.3789 -0.6544 -0.6544
vn 0.3789 -0.6544 0.6544
s 1
f 1/1/1 2/2/1 3/3/1
f 4/4/1 3/3/1 2/2/1
f 2/2/2 5/5/2 4/4/2
f 6/6/2 4/4/2 5/5/2
f 5/5/3 7/7/3 8/8/3
f 8/8/3 6/6/3 5/5/3
f 7/7/4 1/1/4 3/3/4
f 3/3/4 8/8/4 7/7/4
f 1/1/5 7/7/5 5/5/5
f 2/2/5 1/1/5 5/5/5
f 3/3/6 6/6/6 8/8/6
f 4/4/6 6/6/6 3/3/6
f 9/9/7 10/10/7 11/11/7
f 12/12/8 9/9/8 11/11/8
f 13/13/9 12/12/9 11/11/9
f 13/13/10 11/11/10 10/10/10
f 9/9/1 12/12/1 10/10/1
f 13/13/1 10/10/1 12/12/1
