# Blender v2.92.0 OBJ File: ''
# www.blender.org
o Stage
v 1.000000 1.000000 0.015625
v -1.000000 1.000000 0.015625
v 1.000000 -1.000000 0.015625
v -1.000000 -1.000000 0.015625
v -1.000000 1.000000 -0.015625
v -1.000000 -1.000000 -0.015625
v 1.000000 1.000000 -0.015625
v 1.000000 -1.000000 -0.015625
vt 0.000000 1.000000
vt 0.000000 0.000000
vt 1.000000 1.000000
vt 1.000000 0.000000
vt 0.000000 0.000000
vt 1.000000 0.000000
vt 0.000000 1.000000
vt 1.000000 1.000000
vn 0.0000 0.0000 1.0000
vn -1.0000 0.0000 0.0000
vn 0.0000 0.0000 -1.0000
vn 1.0000 0.0000 0.0000
vn 0.0000 1.0000 0.0000
vn 0.0000 -1.0000 0.0000
s 1
f 1/1/1 2/2/1 3/3/1
f 4/4/1 3/3/1 2/2/1
f 2/2/2 5/5/2 4/4/2
f 6/6/2 4/4/2 5/5/2
f 5/5/3 7/7/3 8/8/3
f 8/8/3 6/6/3 5/5/3
f 7/7/4 1/1/4 3/3/4
f 3/3/4 8/8/4 7/7/4
f 1/1/5 7/7/5 5/5/5
f 2/2/5 1/1/5 5/5/5
f 3/3/6 6/6/6 8/8/6
f 4/4/6 6/6/6 3/3/6
